<svg width="24" height="24" viewBox="0 0 24 24" fill="none" xmlns="http://www.w3.org/2000/svg">
<path d="M21.375 12.9487V5.595C22.6451 5.412 23.625 4.31962 23.625 3C23.625 1.55288 22.4475 0.375 21 0.375C19.5525 0.375 18.375 1.55288 18.375 3H0.374969V18H11.6441C11.8391 21.1335 14.4435 23.625 17.625 23.625C20.9332 23.625 23.625 20.9333 23.625 17.625C23.625 15.7354 22.7448 14.0494 21.375 12.9487ZM21 1.125C22.0338 1.125 22.875 1.96613 22.875 3C22.875 4.03387 22.0338 4.875 21 4.875C19.9661 4.875 19.125 4.03387 19.125 3C19.125 1.96613 19.9661 1.125 21 1.125ZM1.12497 3.75H18.4856C18.5752 4.04925 18.7177 4.32488 18.9007 4.56938L16.6072 6.86287C16.4602 6.79238 16.2982 6.75 16.125 6.75C15.9517 6.75 15.7897 6.79238 15.6431 6.86287L14.8875 6.10725C14.9576 5.96025 15 5.79825 15 5.625C15 5.00475 14.4952 4.5 13.875 4.5C13.2547 4.5 12.75 5.00475 12.75 5.625C12.75 5.79825 12.7923 5.96025 12.8628 6.10687L10.9822 7.9875C10.8352 7.91737 10.6732 7.875 10.5 7.875C9.87972 7.875 9.37497 8.37975 9.37497 9C9.37497 9.62025 9.87972 10.125 10.5 10.125C11.1202 10.125 11.625 9.62025 11.625 9C11.625 8.82675 11.5826 8.66475 11.5121 8.51813L13.3927 6.6375C13.5397 6.70763 13.7017 6.75 13.875 6.75C14.0482 6.75 14.2102 6.70762 14.3568 6.63713L15.1125 7.39275C15.0423 7.53975 15 7.70175 15 7.875C15 8.49525 15.5047 9 16.125 9C16.7452 9 17.25 8.49525 17.25 7.875C17.25 7.70175 17.2076 7.53975 17.1371 7.39313L19.431 5.09963C19.7741 5.35687 20.1813 5.53125 20.625 5.59538V12.4373C19.7411 11.9239 18.7185 11.625 17.625 11.625C15.8325 11.625 14.2252 12.4192 13.125 13.6699V12H10.875V16.5H11.7345C11.688 16.7449 11.6598 16.9958 11.6441 17.25H1.12497V3.75ZM16.125 7.5C16.3316 7.5 16.5 7.668 16.5 7.875C16.5 8.082 16.3316 8.25 16.125 8.25C15.9183 8.25 15.75 8.082 15.75 7.875C15.75 7.668 15.9183 7.5 16.125 7.5ZM13.5 5.625C13.5 5.418 13.6683 5.25 13.875 5.25C14.0816 5.25 14.25 5.418 14.25 5.625C14.25 5.832 14.0816 6 13.875 6C13.6683 6 13.5 5.832 13.5 5.625ZM10.875 9C10.875 9.207 10.7066 9.375 10.5 9.375C10.2933 9.375 10.125 9.207 10.125 9C10.125 8.793 10.2933 8.625 10.5 8.625C10.7066 8.625 10.875 8.793 10.875 9ZM17.625 20.625C15.9708 20.625 14.625 19.2791 14.625 17.625C14.625 15.9709 15.9708 14.625 17.625 14.625C19.2791 14.625 20.625 15.9709 20.625 17.625C20.625 19.2791 19.2791 20.625 17.625 20.625ZM12.375 14.7266C12.1953 15.0506 12.0468 15.393 11.9291 15.75H11.625V12.75H12.375V14.7266ZM17.25 12.3941V13.8941C15.3577 14.0831 13.875 15.684 13.875 17.625C13.875 18.1736 13.9965 18.6938 14.2091 19.164L12.9082 19.9151C12.57 19.2221 12.375 18.4466 12.375 17.625C12.375 14.8568 14.5301 12.5876 17.25 12.3941ZM17.625 22.875C15.8197 22.875 14.2245 21.9589 13.2795 20.5669L14.5856 19.8127C15.2673 20.757 16.374 21.375 17.625 21.375C18.876 21.375 19.9826 20.757 20.6643 19.8127L21.9705 20.5669C21.0255 21.9589 19.4302 22.875 17.625 22.875ZM22.3417 19.9151L21.0408 19.164C21.2535 18.6938 21.375 18.1736 21.375 17.625C21.375 15.684 19.8922 14.0827 18 13.8941V12.3941C20.7198 12.5876 22.875 14.8568 22.875 17.625C22.875 18.4466 22.68 19.2221 22.3417 19.9151Z" fill="white"/>
<path d="M17.625 15.375C16.3841 15.375 15.375 16.3841 15.375 17.625C15.375 18.8659 16.3841 19.875 17.625 19.875C18.8659 19.875 19.875 18.8659 19.875 17.625C19.875 16.3841 18.8659 15.375 17.625 15.375ZM17.625 19.125C16.7977 19.125 16.125 18.4523 16.125 17.625C16.125 16.7977 16.7977 16.125 17.625 16.125C18.4522 16.125 19.125 16.7977 19.125 17.625C19.125 18.4523 18.4522 19.125 17.625 19.125Z" fill="white"/>
<path d="M1.875 4.5H2.625V5.25H1.875V4.5Z" fill="white"/>
<path d="M3.375 4.5H8.625V5.25H3.375V4.5Z" fill="white"/>
<path d="M1.875 6H2.625V6.75H1.875V6Z" fill="white"/>
<path d="M3.375 6H8.625V6.75H3.375V6Z" fill="white"/>
<path d="M1.875 7.5H2.625V8.25H1.875V7.5Z" fill="white"/>
<path d="M3.375 7.5H8.625V8.25H3.375V7.5Z" fill="white"/>
<path d="M1.875 9H2.625V9.75H1.875V9Z" fill="white"/>
<path d="M3.375 9H8.625V9.75H3.375V9Z" fill="white"/>
<path d="M1.875 16.5H4.125V12.75H1.875V16.5ZM2.625 13.5H3.375V15.75H2.625V13.5Z" fill="white"/>
<path d="M4.875 16.5H7.125V13.5H4.875V16.5ZM5.625 14.25H6.375V15.75H5.625V14.25Z" fill="white"/>
<path d="M7.875 16.5H10.125V10.5H7.875V16.5ZM8.625 11.25H9.375V15.75H8.625V11.25Z" fill="white"/>
</svg>
