<svg width="24" height="24" viewBox="0 0 24 24" fill="none" xmlns="http://www.w3.org/2000/svg">
<path d="M19.028 3.14444H16.8567V2.1731C16.8567 1.85884 16.5139 1.71601 16.1996 1.71601H14.5141C14.1141 0.573235 13.1142 0.00184981 11.9714 0.00184981C10.8412 -0.0406391 9.81324 0.652362 9.42876 1.71601H7.77175C7.45749 1.71601 7.14322 1.85884 7.14322 2.1731V3.14444H4.97191C3.68522 3.15817 2.63256 4.1732 2.57208 5.45853V21.8287C2.57208 23.0857 3.71485 23.9999 4.97191 23.9999H19.028C20.285 23.9999 21.4278 23.0857 21.4278 21.8287V5.45858C21.3673 4.1732 20.3147 3.15817 19.028 3.14444ZM8.28594 2.85878H9.85726C10.1316 2.82531 10.3519 2.61664 10.4001 2.34454C10.5693 1.60773 11.2157 1.07884 11.9714 1.05893C12.7202 1.08163 13.3568 1.61216 13.5142 2.34454C13.5654 2.62605 13.8003 2.8374 14.0855 2.85878H15.714V5.14432H8.28594V2.85878ZM20.285 21.8287C20.285 22.4573 19.6565 22.8572 19.028 22.8572H4.97191C4.34338 22.8572 3.71485 22.4573 3.71485 21.8287V5.45858C3.77315 4.80435 4.31517 4.29924 4.97191 4.28727H7.14317V5.74431C7.17335 6.06442 7.4506 6.30388 7.7717 6.28715H16.1996C16.5266 6.30503 16.8125 6.06885 16.8567 5.74431V4.28721H19.0279C19.6846 4.29924 20.2267 4.8043 20.285 5.45853V21.8287H20.285Z" fill="white"/>
<path d="M9.8001 12.7723C9.58579 12.5464 9.23002 12.5337 9.00013 12.7438L7.17169 14.4865L6.40033 13.6865C6.18602 13.4606 5.83025 13.4479 5.60036 13.658C5.37906 13.8898 5.37906 14.2546 5.60036 14.4865L6.77168 15.6864C6.87306 15.7999 7.01951 15.8627 7.17163 15.8578C7.32234 15.8557 7.4661 15.7941 7.57159 15.6864L9.79999 13.5723C10.0209 13.3696 10.0357 13.0262 9.83296 12.8053C9.82257 12.7938 9.81158 12.7828 9.8001 12.7723Z" fill="white"/>
<path d="M17.9996 14.0008H11.4287C11.1131 14.0008 10.8573 14.2566 10.8573 14.5722C10.8573 14.8877 11.1131 15.1436 11.4287 15.1436H17.9996C18.3152 15.1436 18.571 14.8877 18.571 14.5722C18.571 14.2566 18.3152 14.0008 17.9996 14.0008Z" fill="white"/>
<path d="M9.8001 8.20124C9.58579 7.97534 9.23002 7.9626 9.00013 8.17269L7.17169 9.91539L6.40033 9.11543C6.18602 8.88954 5.83025 8.87679 5.60036 9.08689C5.37906 9.31875 5.37906 9.68354 5.60036 9.91539L6.77168 11.1153C6.87306 11.2288 7.01951 11.2916 7.17163 11.2867C7.32234 11.2846 7.4661 11.223 7.57159 11.1153L9.79999 9.0012C10.0209 8.79854 10.0357 8.45513 9.83296 8.23426C9.82257 8.22273 9.81158 8.21174 9.8001 8.20124Z" fill="white"/>
<path d="M17.9996 9.42969H11.4287C11.1131 9.42969 10.8573 9.6855 10.8573 10.0011C10.8573 10.3167 11.1131 10.5725 11.4287 10.5725H17.9996C18.3152 10.5725 18.571 10.3167 18.571 10.0011C18.571 9.6855 18.3152 9.42969 17.9996 9.42969Z" fill="white"/>
<path d="M9.8001 17.3433C9.58579 17.1174 9.23002 17.1048 9.00013 17.3148L7.17169 19.0575L6.40033 18.2575C6.18602 18.0316 5.83025 18.019 5.60036 18.229C5.37906 18.4608 5.37906 18.8256 5.60036 19.0575L6.77168 20.2574C6.87306 20.3709 7.01951 20.4337 7.17163 20.4288C7.32234 20.4267 7.4661 20.3651 7.57159 20.2574L9.79999 18.1433C10.0209 17.9406 10.0357 17.5972 9.83296 17.3764C9.82257 17.3649 9.81158 17.3539 9.8001 17.3433Z" fill="white"/>
<path d="M17.9996 18.5719H11.4287C11.1131 18.5719 10.8573 18.8277 10.8573 19.1432C10.8573 19.4588 11.1131 19.7146 11.4287 19.7146H17.9996C18.3152 19.7146 18.571 19.4588 18.571 19.1432C18.571 18.8277 18.3152 18.5719 17.9996 18.5719Z" fill="white"/>
</svg>
