<svg width="24" height="24" viewBox="0 0 24 24" fill="none" xmlns="http://www.w3.org/2000/svg">
<g clip-path="url(#clip0)">
<path d="M21.4286 0.000396729H2.57143C1.15127 0.000396729 0 1.15166 0 2.57182V16.2861C0 17.7063 1.15127 18.8575 2.57143 18.8575H5.6143L5.14803 23.049C5.09605 23.5195 5.43535 23.943 5.90589 23.995C6.14887 24.0218 6.39175 23.9436 6.57346 23.7801L12.0437 18.8575H21.4286C22.8487 18.8575 24 17.7063 24 16.2861V2.57182C24 1.15166 22.8487 0.000396729 21.4286 0.000396729ZM22.2857 16.2861C22.2857 16.7595 21.9019 17.1433 21.4285 17.1433H11.7146C11.5028 17.1433 11.2985 17.2218 11.1411 17.3636L7.10055 21.0004L7.42369 18.0956C7.47622 17.6251 7.13747 17.2011 6.66698 17.1485C6.63534 17.145 6.60354 17.1432 6.5717 17.1433H2.57143C2.09802 17.1433 1.71427 16.7595 1.71427 16.2861V2.57182C1.71427 2.09842 2.09802 1.71466 2.57143 1.71466H21.4286C21.902 1.71466 22.2857 2.09842 22.2857 2.57182V16.2861H22.2857Z" fill="white"/>
</g>
<defs>
<clipPath id="clip0">
<rect width="24" height="24" fill="white"/>
</clipPath>
</defs>
</svg>
