<svg width="24" height="24" viewBox="0 0 24 24" fill="none" xmlns="http://www.w3.org/2000/svg">
<path d="M19.14 12.936C19.176 12.636 19.2 12.324 19.2 12C19.2 11.676 19.176 11.364 19.128 11.064L21.156 9.48001C21.336 9.33601 21.384 9.07201 21.276 8.86801L19.356 5.54401C19.236 5.32801 18.984 5.25601 18.768 5.32801L16.38 6.28801C15.876 5.90401 15.348 5.59201 14.76 5.35201L14.4 2.80801C14.364 2.56801 14.16 2.40001 13.92 2.40001H10.08C9.84005 2.40001 9.64805 2.56801 9.61205 2.80801L9.25205 5.35201C8.66405 5.59201 8.12405 5.91601 7.63205 6.28801L5.24405 5.32801C5.02805 5.24401 4.77605 5.32801 4.65605 5.54401L2.73605 8.86801C2.61605 9.08401 2.66405 9.33601 2.85605 9.48001L4.88405 11.064C4.83605 11.364 4.80005 11.688 4.80005 12C4.80005 12.312 4.82405 12.636 4.87205 12.936L2.84405 14.52C2.66405 14.664 2.61605 14.928 2.72405 15.132L4.64405 18.456C4.76405 18.672 5.01605 18.744 5.23205 18.672L7.62005 17.712C8.12405 18.096 8.65205 18.408 9.24005 18.648L9.60005 21.192C9.64805 21.432 9.84005 21.6 10.08 21.6H13.92C14.16 21.6 14.364 21.432 14.388 21.192L14.748 18.648C15.336 18.408 15.876 18.084 16.368 17.712L18.756 18.672C18.972 18.756 19.224 18.672 19.344 18.456L21.264 15.132C21.384 14.916 21.336 14.664 21.144 14.52L19.14 12.936ZM12 15.6C10.02 15.6 8.40005 13.98 8.40005 12C8.40005 10.02 10.02 8.40001 12 8.40001C13.98 8.40001 15.6 10.02 15.6 12C15.6 13.98 13.98 15.6 12 15.6Z" fill="#037cfe"/>
</svg>
