<svg width="24" height="24" viewBox="0 0 24 24" fill="none" xmlns="http://www.w3.org/2000/svg">
<g clip-path="url(#clip0)">
<path d="M21.2374 17.5809C21.432 17.5809 21.5897 17.4232 21.5897 17.2286V1.05675C21.5896 0.474047 21.1156 0 20.5329 0H4.73234C4.14964 0 3.67559 0.474047 3.67559 1.05675V2.9002C2.9554 3.04125 2.41025 3.67692 2.41025 4.43775C2.41025 5.19863 2.95545 5.8343 3.67559 5.97534V6.68128C2.9554 6.82233 2.41025 7.458 2.41025 8.21883C2.41025 8.9797 2.95545 9.61537 3.67559 9.75642V10.4624C2.9554 10.6035 2.41025 11.2392 2.41025 12C2.41025 12.7609 2.95545 13.3965 3.67559 13.5376V14.2435C2.9554 14.3846 2.41025 15.0203 2.41025 15.7811C2.41025 16.542 2.95545 17.1776 3.67559 17.3187V18.0246C2.9554 18.1657 2.41025 18.8013 2.41025 19.5622C2.41025 20.323 2.95545 20.9587 3.67559 21.0998V22.9432C3.67559 23.526 4.14964 24 4.73234 24H20.5329C21.1156 24 21.5896 23.526 21.5896 22.9432V18.6376C21.5896 18.4431 21.4319 18.2854 21.2374 18.2854C21.0428 18.2854 20.8851 18.4431 20.8851 18.6376V22.9432C20.8851 23.1375 20.7271 23.2955 20.5328 23.2955H4.73234C4.53809 23.2955 4.38008 23.1375 4.38008 22.9432V18.8001C4.65317 18.945 4.83978 19.2321 4.83978 19.5623C4.83978 19.7568 4.99747 19.9145 5.19204 19.9145C5.38662 19.9145 5.54431 19.7568 5.54431 19.5623C5.54431 18.8374 5.04959 18.2262 4.38008 18.048V15.019C4.65317 15.1639 4.83978 15.451 4.83978 15.7811C4.83978 15.9757 4.99747 16.1334 5.19204 16.1334C5.38662 16.1334 5.54431 15.9757 5.54431 15.7811C5.54431 15.0563 5.04959 14.445 4.38008 14.2668V11.2379C4.65317 11.3828 4.83978 11.6699 4.83978 12C4.83978 12.1945 4.99747 12.3523 5.19204 12.3523C5.38662 12.3523 5.54431 12.1945 5.54431 12C5.54431 11.2752 5.04959 10.664 4.38008 10.4857V7.45673C4.65317 7.60167 4.83978 7.88873 4.83978 8.21883C4.83978 8.41336 4.99747 8.57109 5.19204 8.57109C5.38662 8.57109 5.54431 8.41336 5.54431 8.21883C5.54431 7.494 5.04959 6.8828 4.38008 6.70453V3.67566C4.65317 3.82059 4.83978 4.10766 4.83978 4.43775C4.83978 4.63228 4.99747 4.79002 5.19204 4.79002C5.38662 4.79002 5.54431 4.63228 5.54431 4.43775C5.54431 3.71292 5.04959 3.10172 4.38008 2.92345V1.05675C4.38008 0.8625 4.53809 0.704484 4.73234 0.704484H20.5329C20.7271 0.704484 20.8851 0.8625 20.8851 1.05675V17.2286C20.8851 17.4232 21.0428 17.5809 21.2374 17.5809ZM3.11473 4.43775C3.11473 4.06842 3.34854 3.75347 3.67559 3.63075V5.24475C3.34854 5.12208 3.11473 4.80713 3.11473 4.43775ZM3.11473 8.21887C3.11473 7.84955 3.34854 7.53459 3.67559 7.41187V9.02588C3.34854 8.9032 3.11473 8.58825 3.11473 8.21887ZM3.11473 12C3.11473 11.6307 3.34854 11.3157 3.67559 11.193V12.807C3.34854 12.6843 3.11473 12.3694 3.11473 12ZM3.11473 15.7811C3.11473 15.4117 3.34854 15.0968 3.67559 14.9741V16.5881C3.34854 16.4654 3.11473 16.1505 3.11473 15.7811ZM3.11473 19.5623C3.11473 19.1929 3.34854 18.8779 3.67559 18.7552V20.3693C3.34854 20.2465 3.11473 19.9316 3.11473 19.5623Z" fill="white"/>
<path d="M14.012 2.64952C13.8174 2.64952 13.6597 2.80721 13.6597 3.00179V4.52176C13.6597 4.71629 13.8174 4.87402 14.012 4.87402C14.2065 4.87402 14.3642 4.71629 14.3642 4.52176V3.36901C16.3426 3.53837 17.9243 5.12002 18.0937 7.09843H14.3642V5.93073C14.3642 5.73619 14.2065 5.57846 14.012 5.57846C13.8174 5.57846 13.6597 5.73615 13.6597 5.93073V7.4507C13.6597 7.64523 13.8174 7.80296 14.012 7.80296H18.4609C18.6555 7.80296 18.8132 7.64527 18.8132 7.4507C18.8131 4.80329 16.6593 2.64952 14.012 2.64952Z" fill="white"/>
<path d="M12.5564 4.40096C10.1025 4.40096 8.10611 6.39736 8.10611 8.85127C8.10611 9.0458 8.2638 9.20353 8.45838 9.20353C8.65295 9.20353 8.81064 9.0458 8.81064 8.85127C8.81064 6.90455 10.3033 5.29992 12.2042 5.12185V8.85127C12.2047 8.89374 12.2124 8.93597 12.227 8.97586L13.5461 12.4634C13.2307 12.5499 12.899 12.5971 12.5564 12.5971C10.9808 12.5971 9.56388 11.6014 9.03067 10.1196C8.96481 9.93656 8.76311 9.84164 8.57997 9.90741C8.39692 9.97327 8.30191 10.1751 8.36781 10.3581C9.00128 12.1187 10.6846 13.3015 12.5564 13.3015C13.1035 13.3015 13.6278 13.2021 14.1123 13.0207C14.1186 13.0187 14.125 13.0169 14.1312 13.0145C14.1374 13.0122 14.1432 13.0093 14.1492 13.0066C15.8187 12.3646 17.0067 10.7442 17.0067 8.85127C17.0067 8.65674 16.849 8.499 16.6545 8.499H12.9086V4.75317C12.9086 4.55864 12.751 4.40096 12.5564 4.40096ZM14.2048 12.2136L13.0662 9.20349H16.2858C16.1618 10.5271 15.3459 11.652 14.2048 12.2136Z" fill="white"/>
<path d="M18.4611 15.4289H7.96622C7.77164 15.4289 7.61395 15.5866 7.61395 15.7811C7.61395 15.9757 7.77164 16.1334 7.96622 16.1334H18.4611C18.6556 16.1334 18.8133 15.9757 18.8133 15.7811C18.8133 15.5866 18.6556 15.4289 18.4611 15.4289Z" fill="white"/>
<path d="M18.8132 17.9331C18.8132 17.7386 18.6556 17.5809 18.461 17.5809H7.96613C7.77155 17.5809 7.61386 17.7386 7.61386 17.9331C7.61386 18.1277 7.77155 18.2854 7.96613 18.2854H18.461C18.6556 18.2854 18.8132 18.1277 18.8132 17.9331Z" fill="white"/>
<path d="M7.96613 19.7329C7.77155 19.7329 7.61386 19.8906 7.61386 20.0851C7.61386 20.2797 7.77155 20.4374 7.96613 20.4374H15.4385C15.6331 20.4374 15.7908 20.2797 15.7908 20.0851C15.7908 19.8906 15.6331 19.7329 15.4385 19.7329H7.96613Z" fill="white"/>
</g>
<defs>
<clipPath id="clip0">
<rect width="24" height="24" fill="white"/>
</clipPath>
</defs>
</svg>
